PathFileType	4	(X/Y/Z)	E:\Qualisys_Data\Carbon_Farble_Plate\Data\Amateur_Runner\S2\T3\S2T3V12_c3d.trc
DataRate	CameraRate	NumFrames	NumMarkers	Units	OrigDataRate	OrigDataStartFrame	OrigNumFrames
200.000000	200.000000	4	39	mm	200.000000	118	316
Frame#	Time	LSHO			RSHO			LICST			RICST			LASIS			LHEEL			RASIS			LTROC			RTROC			SACR			LTH1			LSK4			LTH2			LTH3			RHM5			LSK2			LTH4			RTH1			LTOE			RTH2			RTH3			RTH4			LLEP			RLEP			LSK1			LSK3			RSK1			LHM5			RSK2			LFT1			RSK3			RSK4			LLME			RLME			RTOE			RHEEL			RFT1			RFT2			LFT2			
		X1	Y1	Z1	X2	Y2	Z2	X3	Y3	Z3	X4	Y4	Z4	X5	Y5	Z5	X6	Y6	Z6	X7	Y7	Z7	X8	Y8	Z8	X9	Y9	Z9	X10	Y10	Z10	X11	Y11	Z11	X12	Y12	Z12	X13	Y13	Z13	X14	Y14	Z14	X15	Y15	Z15	X16	Y16	Z16	X17	Y17	Z17	X18	Y18	Z18	X19	Y19	Z19	X20	Y20	Z20	X21	Y21	Z21	X22	Y22	Z22	X23	Y23	Z23	X24	Y24	Z24	X25	Y25	Z25	X26	Y26	Z26	X27	Y27	Z27	X28	Y28	Z28	X29	Y29	Z29	X30	Y30	Z30	X31	Y31	Z31	X32	Y32	Z32	X33	Y33	Z33	X34	Y34	Z34	X35	Y35	Z35	X36	Y36	Z36	X37	Y37	Z37	X38	Y38	Z38	X39	Y39	Z39	

119	0.59	-287.6753540039062	1439.155395507812	-563.3681640625	-291.0658264160156	1435.843994140625	-241.7255249023438	-374.1072998046875	991.8021240234376	-534.185302734375	-343.1754150390625	984.1436767578124	-230.8890991210938	-318.76171875	943.70849609375	-523.4020385742188	-718.2197265625	156.33935546875	-414.0151672363281	-286.0562438964844	939.073974609375	-263.9090576171875	-455.0186462402344	876.1744995117188	-518.4402465820312	-418.0048522949219	877.1094360351562	-218.2981872558594	-449.3007507324219	1032.322631835938	-377.9400024414062	-359.9445495605469	628.0379638671875	-535.2693481445312	-587.5272216796875	314.2440795898438	-502.3114929199219	-441.9291076660156	637.7154541015625	-532.4992065429688	-371.4357604980469	527.55859375	-511.1665649414062	-469.0828857421875	158.8860473632812	-231.3951416015625	-533.7572021484375	396.56884765625	-520.8468627929688	-454.6961975097656	540.5043334960938	-508.4608764648438	-194.0189056396484	661.5723266601562	-219.0271759033203	-497.2255859375	63.39980316162109	-443.7579040527344	-267.6605834960938	634.89453125	-210.9737701416016	-161.4934844970703	566.847900390625	-237.8629302978516	-239.7699432373047	542.565185546875	-229.4652404785156	-424.8968200683594	488.1832885742188	-511.9432678222656	-207.3638458251953	522.5027465820312	-228.8173217773438	-467.3332214355469	354.1195068359375	-511.7584838867188	-522.7301025390625	271.0761108398438	-497.1490478515625	-261.9074401855469	421.7281799316406	-230.0584259033203	-563.7850952148438	66.15388488769531	-499.8855895996094	-309.0242919921875	487.2319946289062	-226.7067565917969	-717.3689575195312	125.7046508789062	-385.0026245117188	-344.584716796875	362.2961120605469	-238.8996734619141	-388.4412231445312	428.6772766113281	-237.2527160644531	-650.1995849609375	151.0186157226562	-470.7195129394531	-514.1378173828125	282.6226501464844	-262.4427795410156	-411.9430236816406	119.0713272094727	-284.3369445800781	-568.459228515625	313.9129638671875	-322.4881286621094	-575.083251953125	286.8011474609375	-351.0784606933594	-587.7437744140625	299.4211120605469	-302.2756652832031	-728.3435668945312	124.8179931640625	-435.726806640625
120	0.595	-270.3903503417969	1443.973999023438	-562.0023803710938	-277.392822265625	1439.8046875	-241.0446472167969	-357.20556640625	995.5133056640624	-533.6204833984375	-327.349365234375	988.9061889648438	-230.6452941894531	-302.9258117675781	946.6912231445312	-522.791015625	-713.0401611328125	162.7560272216797	-414.5421752929688	-270.470703125	943.4554443359376	-263.5809631347656	-439.7893676757812	880.6000366210938	-517.59326171875	-401.9697570800781	882.4547119140625	-216.7476043701172	-433.4550170898438	1036.41552734375	-377.9470520019531	-348.6844482421875	631.5054321289062	-534.8313598632812	-581.9924926757812	320.7349853515625	-503.548583984375	-430.4855346679688	643.2117309570312	-532.99365234375	-362.1980895996094	530.9413452148438	-511.6197814941406	-436.4105224609375	153.4652557373047	-231.5365295410156	-527.5442504882812	402.4856567382812	-521.9849243164062	-445.8017578125	545.72412109375	-509.2848815917969	-177.0552520751953	667.1929321289062	-218.9560699462891	-496.2779235839844	63.29539489746094	-444.4373474121094	-250.5494995117188	639.9566650390625	-210.7088623046875	-144.0924682617188	572.87109375	-238.1270904541016	-222.4518432617188	547.9900512695312	-229.2458801269531	-417.7300415039062	493.1099548339844	-512.8797607421875	-190.0652770996094	527.6664428710938	-229.0075836181641	-461.8454895019531	360.1009216308594	-513.2537841796875	-517.144287109375	276.9618835449219	-499.090576171875	-241.1775665283203	424.1520080566406	-229.6132507324219	-562.3018798828125	67.06127166748047	-500.7930908203125	-291.2249145507812	487.4482727050781	-226.2332305908203	-713.1337280273438	132.710693359375	-385.7899475097656	-321.4089660644531	361.4599914550781	-239.4019317626953	-368.4598693847656	425.6265258789062	-236.9558258056641	-644.9651489257812	156.37939453125	-472.1026306152344	-487.6652526855469	274.5228881835938	-263.0916748046875	-377.2651672363281	116.6810531616211	-284.8037109375	-543.5736694335938	303.470703125	-323.148193359375	-549.2047729492188	275.3561401367188	-351.8638000488281	-562.3439331054688	287.5845031738281	-303.5427551269531	-724.04443359375	131.2741241455078	-436.3162536621094
121	0.6	-253.1812133789062	1448.748901367188	-560.5221557617188	-263.6642456054688	1444.13818359375	-240.1833801269531	-340.5214233398438	999.537353515625	-532.922607421875	-312.2621154785156	993.5228271484376	-230.4588317871094	-286.7492065429688	949.9351806640624	-521.8970947265625	-706.8474731445312	170.0864562988281	-415.9429016113281	-255.0086669921875	948.2630004882812	-263.091064453125	-424.2613220214844	885.4217529296875	-517.732177734375	-385.8929138183594	887.626953125	-214.7761535644531	-417.4661254882812	1040.329956054688	-378.134521484375	-336.9142150878906	634.9692993164062	-534.78173828125	-576.0060424804688	327.0439147949219	-504.8011169433594	-418.6403198242188	648.575927734375	-533.7362060546875	-352.9426574707031	535.19091796875	-511.8696594238281	-403.9613037109375	148.5196380615234	-231.4723663330078	-521.2672729492188	408.7120056152344	-522.8348999023438	-436.1661987304688	551.5505981445312	-510.3399658203125	-160.6095275878906	672.6602783203125	-219.1497955322266	-494.7669067382812	62.92627716064453	-445.3931884765625	-233.7166748046875	645.0213623046875	-210.0020294189453	-127.3237915039062	578.2139282226562	-238.7898864746094	-204.7811889648438	553.488037109375	-229.6664428710938	-409.538330078125	498.0093688964844	-514.2395629882812	-173.2272033691406	532.558349609375	-229.4138336181641	-455.560791015625	365.7712097167969	-515.169189453125	-511.4389038085938	283.0217895507812	-501.1836242675781	-221.2301177978516	426.4598693847656	-230.1829986572266	-560.51953125	67.93419647216797	-501.2345581054688	-274.1281433105469	487.6922607421875	-225.6454162597656	-707.44580078125	139.6233673095703	-386.9318542480469	-298.7959289550781	360.0308837890625	-239.5337982177734	-348.4096069335938	422.1618957519531	-236.8937835693359	-639.6837768554688	161.2710876464844	-473.5889587402344	-461.2027893066406	266.4141845703125	-263.7846374511719	-342.4256896972656	114.8423538208008	-284.7972412109375	-517.6966552734375	292.5512084960938	-323.5938415527344	-522.4815063476562	264.2886047363281	-352.6315002441406	-536.1256713867188	275.6209716796875	-304.1805114746094	-718.8750610351562	138.3837585449219	-437.1252136230469
122	0.605	-236.2102203369141	1453.56884765625	-558.8422241210938	-249.6072845458984	1448.1435546875	-239.5857391357422	-323.3689270019531	1003.401306152344	-532.3623657226562	-296.7506713867188	998.6090087890624	-230.0666351318359	-270.0440368652344	953.5200805664062	-521.0541381835938	-699.3145141601562	178.10986328125	-416.9544677734375	-239.7153625488281	952.6541748046876	-262.5858764648438	-408.5064697265625	889.9637451171875	-517.4448852539062	-369.7202758789062	892.4598999023438	-213.1898651123047	-401.6108093261719	1044.53662109375	-378.1286010742188	-325.2915344238281	638.8505249023438	-534.7302856445312	-569.5238037109375	333.5826416015625	-505.8504943847656	-406.6960144042969	653.5633544921875	-534.4696655273438	-343.1139526367188	539.1425170898438	-512.721923828125	-371.2329406738281	143.6840362548828	-231.8734741210938	-514.19189453125	414.9400634765625	-524.1839599609375	-426.2562866210938	557.0682373046875	-512.0238037109375	-144.2366027832031	677.8854370117188	-219.1493072509766	-493.389892578125	62.18492126464844	-446.1797180175781	-216.9339599609375	650.0116577148438	-209.8001403808594	-110.8239364624023	583.5881958007812	-238.9486846923828	-187.6855010986328	558.5037231445312	-229.0599060058594	-401.2283935546875	502.7144470214844	-515.004638671875	-156.5847930908203	537.3577270507812	-228.7414703369141	-449.1476745605469	371.7015075683594	-516.90576171875	-504.964599609375	289.0650329589844	-503.4686889648438	-201.4222412109375	428.8385620117188	-230.0641632080078	-558.0570678710938	68.87599182128906	-502.4378967285156	-256.9723510742188	487.3349304199219	-225.286865234375	-701.6467895507812	148.3205871582031	-388.2255554199219	-275.1435546875	358.787841796875	-239.7368316650391	-328.4082336425781	418.72265625	-236.6012878417969	-633.6072387695312	166.0934295654297	-475.2848205566406	-434.1123352050781	258.4382934570312	-264.1346435546875	-308.0205383300781	113.2005386352539	-284.5845642089844	-491.9190673828125	281.77197265625	-324.161376953125	-496.732177734375	252.9739837646484	-351.6102905273438	-509.6835327148438	263.6083374023438	-304.9412536621094	-713.5946044921875	147.7708892822266	-439.0173034667969
